<svg width="18" height="18" viewBox="0 0 18 18" fill="none" xmlns="http://www.w3.org/2000/svg">
<path d="M15.4381 16.265H14.1231C13.9801 16.259 13.845 16.1979 13.7459 16.0946C13.6469 15.9913 13.5916 15.8537 13.5916 15.7105C13.5916 15.5674 13.6469 15.4298 13.7459 15.3265C13.845 15.2232 13.9801 15.1621 14.1231 15.156H15.4381C15.681 15.1534 15.913 15.0546 16.0832 14.8812C16.2534 14.7078 16.3479 14.474 16.3461 14.231V2.03104C16.3477 1.78825 16.253 1.55473 16.0829 1.38156C15.9127 1.20839 15.6808 1.1097 15.4381 1.10706H2.00006C1.75721 1.10943 1.52521 1.20803 1.35498 1.38126C1.18475 1.55448 1.0902 1.78817 1.09206 2.03104V14.231C1.08993 14.4741 1.18437 14.708 1.35463 14.8815C1.52488 15.0549 1.75703 15.1537 2.00006 15.156H3.31306C3.45605 15.1621 3.59117 15.2232 3.6902 15.3265C3.78922 15.4298 3.84451 15.5674 3.84451 15.7105C3.84451 15.8537 3.78922 15.9913 3.6902 16.0946C3.59117 16.1979 3.45605 16.259 3.31306 16.265H2.00006C1.4652 16.2603 0.954103 16.0434 0.579083 15.662C0.204063 15.2806 -0.00419789 14.7659 6.4151e-05 14.231V2.03104C-0.00393155 1.49634 0.204447 0.981917 0.579439 0.600739C0.95443 0.21956 1.46537 0.00280142 2.00006 -0.00195312H15.4401C15.9748 0.00280142 16.4857 0.21956 16.8607 0.600739C17.2357 0.981917 17.4441 1.49634 17.4401 2.03104V14.231C17.4422 14.4961 17.3921 14.7589 17.2926 15.0045C17.1931 15.2502 17.0462 15.4738 16.8603 15.6627C16.6744 15.8516 16.4531 16.002 16.2091 16.1053C15.9651 16.2087 15.7031 16.263 15.4381 16.265Z" fill="#FF5A3C"/>
<path d="M16.8911 3.69714H0.545119C0.40213 3.69107 0.267015 3.63 0.167987 3.52667C0.0689582 3.42335 0.0136719 3.28576 0.0136719 3.14264C0.0136719 2.99952 0.0689582 2.86193 0.167987 2.75861C0.267015 2.65528 0.40213 2.59421 0.545119 2.58813H16.8911C17.0341 2.59421 17.1692 2.65528 17.2682 2.75861C17.3673 2.86193 17.4226 2.99952 17.4226 3.14264C17.4226 3.28576 17.3673 3.42335 17.2682 3.52667C17.1692 3.63 17.0341 3.69107 16.8911 3.69714Z" fill="#FF5A3C"/>
<path d="M8.71789 17.743C8.64465 17.7429 8.57219 17.7279 8.50489 17.699C8.33589 17.626 4.35889 15.864 4.35889 12.238V9.26803C4.35838 9.15293 4.39374 9.04052 4.46005 8.94644C4.52636 8.85235 4.62032 8.78127 4.72889 8.74304L8.54289 7.42303C8.65614 7.38308 8.77965 7.38308 8.89289 7.42303L12.7069 8.74304C12.8156 8.78101 12.9098 8.85205 12.9761 8.94619C13.0425 9.04034 13.0777 9.15286 13.0769 9.26803V12.238C13.0769 15.864 9.09989 17.626 8.93089 17.699C8.86354 17.7278 8.79112 17.7427 8.71789 17.743ZM5.44889 9.66504V12.238C5.44889 14.714 7.95889 16.187 8.71689 16.575C9.47389 16.185 11.9869 14.704 11.9869 12.238V9.66504L8.71789 8.53305L5.44889 9.66504Z" fill="#FF5A3C"/>
<path d="M8.53621 14.416C8.46449 14.4159 8.39351 14.4016 8.32741 14.3737C8.26131 14.3459 8.20141 14.3052 8.15121 14.254L6.70021 12.775C6.59784 12.6702 6.54053 12.5295 6.54053 12.383C6.54053 12.2365 6.59784 12.0958 6.70021 11.991C6.75034 11.9395 6.81028 11.8986 6.87649 11.8706C6.9427 11.8427 7.01384 11.8283 7.08571 11.8283C7.15758 11.8283 7.22872 11.8427 7.29493 11.8706C7.36114 11.8986 7.42108 11.9395 7.47121 11.991L8.48021 13.018L10.2802 10.572C10.3224 10.5138 10.3758 10.4647 10.4373 10.4275C10.4988 10.3903 10.5672 10.3658 10.6383 10.3555C10.7094 10.3451 10.7819 10.3491 10.8514 10.3672C10.921 10.3854 10.9862 10.4172 11.0432 10.461C11.1589 10.5507 11.2349 10.682 11.2551 10.827C11.2753 10.972 11.238 11.1191 11.1512 11.237L8.97121 14.195C8.92465 14.2587 8.8647 14.3113 8.7956 14.3494C8.72649 14.3874 8.6499 14.4098 8.57121 14.415L8.53621 14.416Z" fill="#FF5A3C"/>
</svg>
