<svg width="18" height="20" viewBox="0 0 18 20" fill="none" xmlns="http://www.w3.org/2000/svg">
<path d="M7.58199 7.854C7.33115 7.87138 7.08629 7.93856 6.8617 8.05161C6.63712 8.16465 6.4373 8.3213 6.27392 8.51242C6.11054 8.70354 5.98687 8.92529 5.91014 9.16473C5.8334 9.40417 5.80513 9.6565 5.82699 9.90698C5.82699 11.144 6.70299 11.956 8.02699 13.184C8.25799 13.398 8.49699 13.619 8.75099 13.86C8.81242 13.9209 8.89545 13.9551 8.98199 13.9551C9.06852 13.9551 9.15155 13.9209 9.21299 13.86C9.46699 13.619 9.70699 13.398 9.93799 13.184C11.265 11.956 12.138 11.144 12.138 9.90698C12.1598 9.6565 12.1316 9.40417 12.0548 9.16473C11.9781 8.92529 11.8544 8.70354 11.6911 8.51242C11.5277 8.3213 11.3279 8.16465 11.1033 8.05161C10.8787 7.93856 10.6338 7.87138 10.383 7.854C10.0958 7.86146 9.81556 7.94381 9.57 8.0929C9.32444 8.24199 9.12209 8.45262 8.98299 8.70398C8.84412 8.45243 8.64183 8.24162 8.39621 8.0925C8.1506 7.94338 7.87023 7.86116 7.58299 7.854H7.58199ZM9.32399 9.67099C9.32399 9.65999 9.59899 8.617 10.389 8.617C10.5436 8.63069 10.6938 8.67515 10.831 8.7478C10.9681 8.82046 11.0893 8.91982 11.1874 9.04004C11.2855 9.16025 11.3586 9.29889 11.4023 9.44778C11.4461 9.59668 11.4595 9.7528 11.442 9.90698C11.442 10.792 10.706 11.474 9.48599 12.607C9.32399 12.757 9.15799 12.907 8.98599 13.072C8.81399 12.91 8.64799 12.757 8.48599 12.607C7.26599 11.478 6.52999 10.796 6.52999 9.90698C6.51244 9.7528 6.52592 9.59668 6.56964 9.44778C6.61337 9.29889 6.68645 9.16025 6.78457 9.04004C6.8827 8.91982 7.0039 8.82046 7.14102 8.7478C7.27814 8.67515 7.42841 8.63069 7.58299 8.617C8.36299 8.617 8.63599 9.625 8.64799 9.672C8.66343 9.75042 8.70563 9.82106 8.76737 9.87183C8.8291 9.92259 8.90656 9.95035 8.98649 9.95035C9.06642 9.95035 9.14387 9.92259 9.20561 9.87183C9.26735 9.82106 9.30954 9.75042 9.32499 9.672L9.32399 9.67099Z" fill="#FF5A3C"/>
<path d="M4.42278 4.27006C4.61663 4.27006 4.77378 4.09948 4.77378 3.88906C4.77378 3.67864 4.61663 3.50806 4.42278 3.50806C4.22893 3.50806 4.07178 3.67864 4.07178 3.88906C4.07178 4.09948 4.22893 4.27006 4.42278 4.27006Z" fill="#FF5A3C"/>
<path d="M15.7159 9.06799C15.9537 9.26867 16.2547 9.37883 16.5659 9.379C16.9532 9.36082 17.3176 9.19035 17.5799 8.90472C17.8421 8.6191 17.9808 8.24145 17.9659 7.854C17.9689 7.62379 17.921 7.39575 17.8255 7.18622C17.7301 6.97669 17.5895 6.79085 17.4139 6.642L15.6499 5.16901V0.381989C15.6539 0.284799 15.6193 0.189976 15.5534 0.118347C15.4876 0.0467186 15.3961 0.0041559 15.2989 0H13.1999C13.1027 0.0041559 13.0111 0.0467186 12.9453 0.118347C12.8795 0.189976 12.8448 0.284799 12.8489 0.381989V2.82498L9.83789 0.311981C9.60046 0.110579 9.29923 3.05176e-05 8.98789 3.05176e-05C8.67654 3.05176e-05 8.37531 0.110579 8.13789 0.311981L5.46589 2.543C5.39076 2.60813 5.34258 2.69891 5.33074 2.79764C5.31891 2.89636 5.34427 2.99595 5.40189 3.077C5.42788 3.11606 5.46184 3.14917 5.50153 3.17419C5.54122 3.19922 5.58575 3.21559 5.63221 3.2222C5.67866 3.22881 5.72599 3.22551 5.77108 3.21255C5.81618 3.1996 5.85803 3.17727 5.89389 3.147L8.56489 0.916992C8.68363 0.817192 8.83377 0.762482 8.98889 0.762482C9.144 0.762482 9.29414 0.817192 9.41289 0.916992L16.9949 7.24698C17.083 7.32146 17.1535 7.41453 17.2014 7.51947C17.2493 7.62441 17.2733 7.73866 17.2719 7.854C17.2795 8.04781 17.2102 8.23675 17.0791 8.37967C16.9479 8.52259 16.7656 8.60792 16.5719 8.617C16.4172 8.61674 16.2675 8.56223 16.1489 8.46298L9.20489 2.66299C9.14731 2.61407 9.07469 2.58638 8.99916 2.58456C8.92362 2.58274 8.84975 2.60689 8.78989 2.65298L1.83489 8.46399C1.76605 8.5216 1.68626 8.56469 1.60033 8.59064C1.5144 8.61659 1.4241 8.62487 1.33489 8.61499C1.18031 8.61002 1.03289 8.54874 0.920359 8.44266C0.807829 8.33657 0.737954 8.19301 0.723886 8.039C0.690324 7.89608 0.696735 7.74667 0.742418 7.60715C0.788101 7.46763 0.871293 7.34338 0.982886 7.24799L3.38289 5.23999C3.45817 5.17499 3.50654 5.0843 3.51856 4.98557C3.53058 4.88683 3.50538 4.78715 3.44789 4.70599C3.4219 4.66678 3.3879 4.63352 3.34812 4.6084C3.30834 4.58328 3.26369 4.56686 3.21711 4.56024C3.17053 4.55363 3.12308 4.55695 3.07788 4.57001C3.03268 4.58306 2.99076 4.60555 2.95489 4.63599L0.554886 6.64301C0.334375 6.83184 0.169661 7.07735 0.078542 7.353C-0.0125767 7.62864 -0.0266351 7.92394 0.0378859 8.207C0.0788088 8.5124 0.222896 8.79461 0.446249 9.00687C0.669603 9.21913 0.958804 9.34867 1.26589 9.37399C1.44259 9.39305 1.62133 9.37631 1.79142 9.32477C1.96152 9.27322 2.11948 9.18794 2.25589 9.07401L2.31889 9.02298V14.254C1.90953 14.373 1.54332 14.6078 1.2644 14.9302C0.985478 15.2526 0.805753 15.6488 0.746886 16.071C0.513422 16.2548 0.324843 16.4894 0.195424 16.7569C0.0660056 17.0244 -0.000861134 17.3178 -0.000114064 17.615C-0.0199023 18.1008 0.153713 18.5747 0.482683 18.9327C0.811652 19.2907 1.26914 19.5037 1.75489 19.525H16.2149C16.6999 19.5037 17.1568 19.2912 17.4856 18.9341C17.8145 18.5769 17.9886 18.1041 17.9699 17.619C17.9721 17.3209 17.9062 17.0263 17.7772 16.7575C17.6483 16.4887 17.4597 16.2529 17.2259 16.068C17.1671 15.6457 16.9875 15.2495 16.7085 14.9271C16.4296 14.6047 16.0633 14.3699 15.6539 14.251V9.01999L15.7159 9.06799ZM13.5479 0.768005H14.9479V4.58798L13.5479 3.41599V0.768005ZM5.61589 18.768H1.75489C1.60969 18.7622 1.46707 18.7277 1.33528 18.6665C1.20348 18.6053 1.08512 18.5186 0.987025 18.4114C0.888931 18.3042 0.81305 18.1786 0.763766 18.0419C0.714481 17.9052 0.69277 17.7601 0.699886 17.615C0.698189 17.4175 0.746774 17.2228 0.841068 17.0493C0.935361 16.8757 1.07226 16.729 1.23889 16.623C1.29 16.5905 1.3327 16.5464 1.36346 16.4943C1.39423 16.4421 1.4122 16.3834 1.41589 16.323C1.43261 15.9608 1.58455 15.618 1.84171 15.3623C2.09887 15.1066 2.44255 14.9566 2.80489 14.942C3.03439 14.9459 3.25926 15.0072 3.45906 15.1202C3.65885 15.2332 3.82723 15.3943 3.94889 15.589C3.98652 15.6497 4.0424 15.6968 4.10851 15.7238C4.17462 15.7507 4.24757 15.756 4.31689 15.739C4.3961 15.7172 4.47774 15.7054 4.55989 15.704C4.84884 15.7162 5.12136 15.8418 5.31843 16.0534C5.51551 16.2651 5.6213 16.5459 5.61289 16.835C5.59363 16.9237 5.60597 17.0163 5.64779 17.0968C5.68961 17.1774 5.75827 17.2407 5.84189 17.276C5.98384 17.3336 6.10503 17.4328 6.18946 17.5606C6.2739 17.6884 6.31763 17.8388 6.31489 17.992C6.32331 18.1863 6.25453 18.3759 6.12356 18.5197C5.9926 18.6634 5.81008 18.7494 5.61589 18.759V18.768ZM11.6599 16.684C11.4398 16.8206 11.2603 17.0136 11.1399 17.243H6.83089C6.70985 17.0138 6.53004 16.8208 6.30989 16.684C6.30433 16.6169 6.29531 16.5502 6.28289 16.484H11.6829C11.6759 16.538 11.6659 16.606 11.6599 16.675V16.684ZM6.83189 18.768C6.95588 18.5328 7.02042 18.2709 7.01989 18.005H10.9509C10.9503 18.2709 11.0149 18.5328 11.1389 18.768H6.83189ZM16.5509 16.336C16.5546 16.3964 16.5725 16.4551 16.6033 16.5073C16.6341 16.5594 16.6768 16.6035 16.7279 16.636C16.8946 16.742 17.0317 16.8886 17.1261 17.0622C17.2206 17.2357 17.2694 17.4304 17.2679 17.628C17.2798 17.9193 17.1756 18.2034 16.9781 18.4179C16.7807 18.6324 16.5062 18.7598 16.2149 18.772H12.3549C12.1612 18.7627 11.9791 18.6773 11.848 18.5344C11.717 18.3915 11.6475 18.2027 11.6549 18.009C11.6521 17.8558 11.6959 17.7054 11.7803 17.5776C11.8647 17.4498 11.9859 17.3506 12.1279 17.293C12.2115 17.2577 12.2802 17.1944 12.322 17.1138C12.3638 17.0333 12.3761 16.9407 12.3569 16.852C12.3485 16.5629 12.4543 16.2821 12.6513 16.0704C12.8484 15.8588 13.1209 15.7332 13.4099 15.721C13.492 15.7225 13.5737 15.7343 13.6529 15.756C13.7222 15.773 13.7951 15.7677 13.8613 15.7408C13.9274 15.7138 13.9832 15.6666 14.0209 15.606C14.1425 15.4113 14.3109 15.2502 14.5107 15.1372C14.7105 15.0242 14.9354 14.9629 15.1649 14.959C15.5273 14.9732 15.8711 15.123 16.1282 15.3788C16.3853 15.6346 16.5369 15.9777 16.5529 16.34L16.5509 16.336ZM14.9509 14.204C14.4138 14.2689 13.9238 14.5427 13.5869 14.966C13.5271 14.9589 13.467 14.9552 13.4069 14.955C13.1294 14.9596 12.8571 15.0313 12.6133 15.164C12.3695 15.2967 12.1614 15.4864 12.0069 15.717H5.96589C5.81151 15.4863 5.6035 15.2964 5.35967 15.1637C5.11584 15.031 4.84346 14.9594 4.56589 14.955C4.50573 14.9552 4.44563 14.9589 4.38589 14.966C4.04885 14.5428 3.55894 14.2691 3.02189 14.204V8.42499L8.98789 3.439L14.9549 8.42398L14.9509 14.204Z" fill="#FF5A3C"/>
</svg>
