<svg width="21" height="18" viewBox="0 0 21 18" fill="none" xmlns="http://www.w3.org/2000/svg">
<path d="M19.1082 10.7368H18.6492V10.1708C18.651 9.78038 18.5425 9.39738 18.3362 9.06586C18.6925 8.13761 18.8492 7.14471 18.7962 6.15186C18.7538 4.75948 18.2659 3.41741 17.4042 2.32285C17.0335 1.83085 16.5566 1.42884 16.0089 1.14679C15.4613 0.864738 14.857 0.709915 14.2412 0.693848C12.7591 0.800513 11.3708 1.45881 10.3502 2.53885C9.33975 1.43992 7.94075 0.778087 6.45024 0.693848C5.83443 0.709915 5.23019 0.864738 4.68253 1.14679C4.13488 1.42884 3.65794 1.83085 3.28724 2.32285C2.42538 3.41768 1.93747 4.76014 1.89524 6.15286C1.84231 7.14539 1.99905 8.13793 2.35524 9.06586C2.14922 9.39749 2.04075 9.78042 2.04224 10.1708V10.7318H1.57824C1.14406 10.7782 0.74237 10.9835 0.450466 11.3083C0.158561 11.633 -0.00292969 12.0542 -0.00292969 12.4908C-0.00292969 12.9275 0.158561 13.3487 0.450466 13.6735C0.74237 13.9982 1.14406 14.2035 1.57824 14.2498H2.03724V14.8109C2.01294 15.2961 2.18131 15.7712 2.5057 16.1329C2.8301 16.4946 3.28424 16.7134 3.76924 16.7419C4.18132 16.7389 4.5768 16.579 4.87524 16.2949C5.00128 16.6053 5.21496 16.8723 5.49019 17.0634C5.76543 17.2545 6.09032 17.3613 6.42524 17.3708C6.91024 17.3424 7.36438 17.1236 7.68878 16.7619C8.01317 16.4002 8.18155 15.9251 8.15724 15.4398V15.3348C9.27624 16.2208 10.1152 16.8508 10.1252 16.8578C10.1902 16.9073 10.2696 16.9341 10.3512 16.9341C10.4329 16.9341 10.5123 16.9073 10.5772 16.8578C10.5872 16.8508 11.4202 16.2259 12.5312 15.3459V15.4398C12.5067 15.9248 12.6747 16.3998 12.9987 16.7615C13.3227 17.1232 13.7765 17.3422 14.2612 17.3708C14.5956 17.3617 14.9201 17.2556 15.1953 17.0655C15.4704 16.8754 15.6844 16.6093 15.8112 16.2998C16.1096 16.5841 16.5051 16.744 16.9172 16.7469C17.4022 16.7185 17.8564 16.4996 18.1808 16.1379C18.5052 15.7762 18.6735 15.3011 18.6492 14.8159V14.2559H19.1082C19.5418 14.2084 19.9425 14.0026 20.2336 13.6779C20.5247 13.3532 20.6857 12.9324 20.6857 12.4963C20.6857 12.0602 20.5247 11.6395 20.2336 11.3148C19.9425 10.9901 19.5418 10.7843 19.1082 10.7368ZM2.70024 6.19986C2.80924 3.66086 4.49024 1.59985 6.44724 1.59985C7.14115 1.65845 7.81656 1.85397 8.43447 2.17511C9.05237 2.49625 9.60052 2.93665 10.0472 3.47086C10.0827 3.51695 10.1281 3.55446 10.18 3.5806C10.2319 3.60674 10.2891 3.62084 10.3472 3.62186C10.4046 3.62233 10.4614 3.60988 10.5133 3.58548C10.5652 3.56107 10.611 3.52531 10.6472 3.48083C11.5675 2.42274 12.8531 1.75099 14.2472 1.59985C16.2042 1.59985 17.8852 3.66586 17.9942 6.19986C18.0349 6.96133 17.9331 7.72368 17.6942 8.44785C17.4588 8.31672 17.1937 8.2479 16.9242 8.24786C16.5122 8.25086 16.1167 8.41069 15.8182 8.69485C15.6914 8.38535 15.4774 8.11934 15.2023 7.9292C14.9271 7.73906 14.6026 7.63298 14.2682 7.62384C13.7833 7.65199 13.3292 7.87064 13.0048 8.23215C12.6803 8.59365 12.5119 9.06874 12.5362 9.55386V10.7389H8.15724V9.55084C8.18154 9.06572 8.01313 8.59066 7.68871 8.22916C7.3643 7.86765 6.91016 7.649 6.42524 7.62085C6.09089 7.62999 5.7664 7.73607 5.49122 7.92621C5.21605 8.11635 5.00205 8.38236 4.87524 8.69186C4.5768 8.4077 4.18132 8.24784 3.76924 8.24484C3.49972 8.24474 3.23465 8.3136 2.99924 8.44485C2.76104 7.72158 2.65965 6.96027 2.70024 6.19986ZM8.15924 11.6339H12.5322V13.3568H8.15724L8.15924 11.6339ZM1.58124 13.3568C1.36953 13.3329 1.17406 13.2318 1.03213 13.0729C0.890195 12.914 0.811743 12.7084 0.811743 12.4954C0.811743 12.2823 0.890195 12.0767 1.03213 11.9178C1.17406 11.7589 1.36953 11.6578 1.58124 11.6339H2.04024V13.3568H1.58124ZM3.77124 15.8478C3.51211 15.8324 3.26959 15.7151 3.09652 15.5216C2.92345 15.3282 2.83385 15.0741 2.84724 14.8148V10.1708C2.83385 9.91159 2.92345 9.65757 3.09652 9.46408C3.26959 9.27059 3.51211 9.15333 3.77124 9.13785C4.03028 9.15359 4.27264 9.27093 4.44566 9.46436C4.61867 9.65778 4.70836 9.91165 4.69524 10.1708V14.8109C4.70971 15.0711 4.62033 15.3265 4.44672 15.5209C4.27311 15.7153 4.02946 15.8329 3.76924 15.8478H3.77124ZM7.35124 15.4398C7.3649 15.6993 7.27543 15.9536 7.10233 16.1473C6.92923 16.341 6.68656 16.4584 6.42724 16.4738C6.16792 16.4584 5.92525 16.341 5.75215 16.1473C5.57906 15.9536 5.48958 15.6993 5.50324 15.4398V9.55084C5.48985 9.29159 5.57945 9.03757 5.75252 8.84409C5.92559 8.6506 6.16811 8.53334 6.42724 8.51785C6.68637 8.53334 6.92889 8.6506 7.10196 8.84409C7.27503 9.03757 7.36463 9.29159 7.35124 9.55084V15.4398ZM10.3512 15.9398C9.97024 15.6509 9.15124 15.0228 8.18924 14.2528H12.5112C11.5512 15.0238 10.7302 15.6529 10.3512 15.9398ZM15.1852 15.4398C15.1994 15.5696 15.1861 15.7009 15.1462 15.8251C15.1062 15.9494 15.0405 16.0638 14.9534 16.161C14.8663 16.2582 14.7597 16.3359 14.6405 16.3891C14.5213 16.4423 14.3923 16.4698 14.2617 16.4698C14.1312 16.4698 14.0022 16.4423 13.883 16.3891C13.7638 16.3359 13.6572 16.2582 13.5701 16.161C13.4829 16.0638 13.4173 15.9494 13.3773 15.8251C13.3374 15.7009 13.3241 15.5696 13.3382 15.4398V9.55084C13.3241 9.4211 13.3374 9.28984 13.3773 9.16559C13.4173 9.04134 13.4829 8.92688 13.5701 8.82971C13.6572 8.73254 13.7638 8.65483 13.883 8.60162C14.0022 8.54842 14.1312 8.5209 14.2617 8.5209C14.3923 8.5209 14.5213 8.54842 14.6405 8.60162C14.7597 8.65483 14.8663 8.73254 14.9534 8.82971C15.0405 8.92688 15.1062 9.04134 15.1462 9.16559C15.1861 9.28984 15.1994 9.4211 15.1852 9.55084V15.4398ZM17.8412 14.8159C17.8561 14.946 17.8433 15.0779 17.8036 15.2028C17.764 15.3276 17.6984 15.4428 17.6111 15.5405C17.5239 15.6383 17.417 15.7165 17.2974 15.7701C17.1778 15.8236 17.0483 15.8513 16.9172 15.8513C16.7862 15.8513 16.6567 15.8236 16.5371 15.7701C16.4175 15.7165 16.3106 15.6383 16.2233 15.5405C16.1361 15.4428 16.0705 15.3276 16.0309 15.2028C15.9912 15.0779 15.9784 14.946 15.9932 14.8159V10.1708C15.9784 10.0407 15.9912 9.90882 16.0309 9.78394C16.0705 9.65905 16.1361 9.54393 16.2233 9.44617C16.3106 9.3484 16.4175 9.27017 16.5371 9.21661C16.6567 9.16305 16.7862 9.13538 16.9172 9.13538C17.0483 9.13538 17.1778 9.16305 17.2974 9.21661C17.417 9.27017 17.5239 9.3484 17.6111 9.44617C17.6984 9.54393 17.764 9.65905 17.8036 9.78394C17.8433 9.90882 17.8561 10.0407 17.8412 10.1708V14.8159ZM19.1082 13.3578H18.6492V11.6349H19.1082C19.3199 11.6588 19.5154 11.7599 19.6574 11.9188C19.7993 12.0777 19.8777 12.2833 19.8777 12.4963C19.8777 12.7094 19.7993 12.915 19.6574 13.0739C19.5154 13.2328 19.3199 13.3339 19.1082 13.3578Z" fill="white"/>
</svg>
