<svg width="22" height="18" viewBox="0 0 22 18" fill="none" xmlns="http://www.w3.org/2000/svg">
<path d="M5.9113 11.3841V10.9691C5.9113 10.8852 5.878 10.8049 5.81874 10.7456C5.75948 10.6864 5.67911 10.6531 5.5953 10.6531C5.51149 10.6531 5.43111 10.6864 5.37185 10.7456C5.31259 10.8049 5.2793 10.8852 5.2793 10.9691V11.3841C5.2793 11.4679 5.31259 11.5483 5.37185 11.6075C5.43111 11.6668 5.51149 11.7001 5.5953 11.7001C5.67911 11.7001 5.75948 11.6668 5.81874 11.6075C5.878 11.5483 5.9113 11.4679 5.9113 11.3841Z" fill="#FF5A3C"/>
<path d="M7.7242 10.1152C7.76518 10.1157 7.80585 10.1081 7.84391 10.093C7.88196 10.0778 7.91666 10.0552 7.946 10.0266C7.97534 9.99801 7.99877 9.96392 8.01493 9.92627C8.03109 9.88862 8.03968 9.84813 8.0402 9.80716V9.39215C8.0402 9.30834 8.00691 9.22796 7.94765 9.1687C7.88839 9.10944 7.80801 9.07617 7.7242 9.07617C7.64039 9.07617 7.56002 9.10944 7.50076 9.1687C7.4415 9.22796 7.4082 9.30834 7.4082 9.39215V9.80716C7.40873 9.84813 7.41731 9.88862 7.43348 9.92627C7.44964 9.96392 7.47306 9.99801 7.50241 10.0266C7.53175 10.0552 7.56644 10.0778 7.6045 10.093C7.64255 10.1081 7.68323 10.1157 7.7242 10.1152Z" fill="#FF5A3C"/>
<path d="M10.3 10.969V10.554C10.3 10.4702 10.2667 10.3899 10.2074 10.3306C10.1482 10.2713 10.0678 10.238 9.98397 10.238C9.90016 10.238 9.81978 10.2713 9.76052 10.3306C9.70126 10.3899 9.66797 10.4702 9.66797 10.554V10.969C9.66797 11.0528 9.70126 11.1332 9.76052 11.1925C9.81978 11.2517 9.90016 11.285 9.98397 11.285C10.0678 11.285 10.1482 11.2517 10.2074 11.1925C10.2667 11.1332 10.3 11.0528 10.3 10.969Z" fill="#FF5A3C"/>
<path d="M14.962 10.1221C14.921 10.1214 14.8803 10.1289 14.8421 10.1441C14.804 10.1592 14.7693 10.1817 14.7399 10.2104C14.7105 10.239 14.6871 10.2731 14.671 10.3109C14.6549 10.3486 14.6464 10.3891 14.646 10.4301V10.8441C14.646 10.9279 14.6793 11.0083 14.7386 11.0675C14.7978 11.1268 14.8782 11.1601 14.962 11.1601C15.0458 11.1601 15.1262 11.1268 15.1854 11.0675C15.2447 11.0083 15.278 10.9279 15.278 10.8441V10.4301C15.2776 10.3891 15.2691 10.3486 15.253 10.3109C15.2369 10.2731 15.2135 10.239 15.1841 10.2104C15.1547 10.1817 15.12 10.1592 15.0819 10.1441C15.0437 10.1289 15.003 10.1214 14.962 10.1221Z" fill="#FF5A3C"/>
<path d="M16.3491 12.089V12.5039C16.3491 12.5877 16.3824 12.6681 16.4417 12.7274C16.5009 12.7866 16.5813 12.8199 16.6651 12.8199C16.7489 12.8199 16.8293 12.7866 16.8886 12.7274C16.9478 12.6681 16.9811 12.5877 16.9811 12.5039V12.089C16.9811 12.0052 16.9478 11.9248 16.8886 11.8655C16.8293 11.8062 16.7489 11.7729 16.6651 11.7729C16.5813 11.7729 16.5009 11.8062 16.4417 11.8655C16.3824 11.9248 16.3491 12.0052 16.3491 12.089Z" fill="#FF5A3C"/>
<path d="M17.9243 13.6651V14.0801C17.9243 14.1639 17.9576 14.2443 18.0169 14.3036C18.0761 14.3629 18.1565 14.3961 18.2403 14.3961C18.3241 14.3961 18.4045 14.3629 18.4638 14.3036C18.523 14.2443 18.5563 14.1639 18.5563 14.0801V13.6651C18.5563 13.5813 18.523 13.5009 18.4638 13.4417C18.4045 13.3824 18.3241 13.3491 18.2403 13.3491C18.1565 13.3491 18.0761 13.3824 18.0169 13.4417C17.9576 13.5009 17.9243 13.5813 17.9243 13.6651Z" fill="#FF5A3C"/>
<path d="M11.8293 13.126V12.711C11.8293 12.6272 11.796 12.5468 11.7367 12.4875C11.6775 12.4283 11.5971 12.395 11.5133 12.395C11.4295 12.395 11.3491 12.4283 11.2898 12.4875C11.2306 12.5468 11.1973 12.6272 11.1973 12.711V13.126C11.1973 13.2098 11.2306 13.2902 11.2898 13.3495C11.3491 13.4087 11.4295 13.442 11.5133 13.442C11.5971 13.442 11.6775 13.4087 11.7367 13.3495C11.796 13.2902 11.8293 13.2098 11.8293 13.126Z" fill="#FF5A3C"/>
<path d="M7.32324 13.25C7.32324 13.3338 7.35653 13.4142 7.4158 13.4734C7.47506 13.5327 7.55543 13.566 7.63924 13.566C7.72305 13.566 7.80343 13.5327 7.86269 13.4734C7.92195 13.4142 7.95524 13.3338 7.95524 13.25V12.836C7.95524 12.7522 7.92195 12.6718 7.86269 12.6125C7.80343 12.5533 7.72305 12.52 7.63924 12.52C7.55543 12.52 7.47506 12.5533 7.4158 12.6125C7.35653 12.6718 7.32324 12.7522 7.32324 12.836V13.25Z" fill="#FF5A3C"/>
<path d="M4.06307 13.8491C4.10404 13.8496 4.14472 13.842 4.18278 13.8268C4.22083 13.8117 4.25552 13.7891 4.28487 13.7605C4.31421 13.7319 4.33763 13.6978 4.3538 13.6602C4.36996 13.6225 4.37855 13.5821 4.37907 13.5411V13.1261C4.37907 13.0423 4.34578 12.9619 4.28652 12.9026C4.22725 12.8434 4.14688 12.8101 4.06307 12.8101C3.97926 12.8101 3.89889 12.8434 3.83962 12.9026C3.78036 12.9619 3.74707 13.0423 3.74707 13.1261V13.5411C3.74759 13.5821 3.75618 13.6225 3.77234 13.6602C3.78851 13.6978 3.81193 13.7319 3.84127 13.7605C3.87062 13.7891 3.90531 13.8117 3.94336 13.8268C3.98142 13.842 4.0221 13.8496 4.06307 13.8491Z" fill="#FF5A3C"/>
<path d="M17.7059 3.85215C17.5562 3.74033 17.3785 3.67185 17.1925 3.65421C17.0064 3.63657 16.819 3.67045 16.6509 3.75214C16.6142 3.76973 16.5813 3.79447 16.5543 3.82493C16.5272 3.85538 16.5065 3.89092 16.4934 3.92948C16.4803 3.96804 16.475 4.00884 16.4778 4.04947C16.4806 4.09011 16.4916 4.12978 16.5099 4.16614C16.5489 4.2396 16.615 4.29499 16.6942 4.32056C16.7733 4.34613 16.8593 4.33988 16.9339 4.30314C17.0202 4.26051 17.1197 4.25326 17.2113 4.28296C17.3028 4.31267 17.3791 4.37697 17.4239 4.46213C17.4513 4.51335 17.4922 4.55618 17.542 4.58603C17.5918 4.61588 17.6488 4.63163 17.7069 4.63163C17.765 4.63163 17.822 4.61588 17.8719 4.58603C17.9217 4.55618 17.9625 4.51335 17.9899 4.46213C18.0345 4.37704 18.1107 4.31277 18.2021 4.28305C18.2934 4.25334 18.3928 4.26055 18.4789 4.30314C18.5537 4.33993 18.6398 4.34622 18.7192 4.32065C18.7985 4.29509 18.8647 4.23968 18.9039 4.16614C18.9223 4.12978 18.9332 4.09011 18.9361 4.04947C18.9389 4.00884 18.9336 3.96804 18.9205 3.92948C18.9073 3.89092 18.8866 3.85538 18.8596 3.82493C18.8325 3.79447 18.7997 3.76973 18.7629 3.75214C18.5255 3.63614 18.2522 3.61712 18.0009 3.69913C17.8931 3.73262 17.7917 3.78401 17.7009 3.85114L17.7059 3.85215Z" fill="#FF5A3C"/>
<path d="M14.041 2.61002C14.1275 2.5676 14.227 2.56048 14.3187 2.59015C14.4103 2.61982 14.4868 2.68396 14.532 2.76901C14.5592 2.82026 14.5999 2.86311 14.6497 2.89301C14.6995 2.9229 14.7564 2.93869 14.8145 2.93869C14.8725 2.93869 14.9295 2.9229 14.9793 2.89301C15.029 2.86311 15.0697 2.82026 15.097 2.76901C15.1418 2.68385 15.2181 2.61955 15.3096 2.58984C15.4012 2.56014 15.5007 2.56739 15.587 2.61002C15.6616 2.64676 15.7476 2.65302 15.8267 2.62744C15.9059 2.60187 15.972 2.54648 16.011 2.47302C16.0294 2.43666 16.0403 2.39699 16.0431 2.35635C16.046 2.31572 16.0407 2.27492 16.0275 2.23636C16.0144 2.1978 15.9937 2.16226 15.9666 2.13181C15.9396 2.10135 15.9067 2.07661 15.87 2.05902C15.6329 1.94297 15.3599 1.92395 15.109 2.00601C15.0011 2.03927 14.8996 2.09068 14.809 2.15802C14.659 2.04622 14.4812 1.97775 14.295 1.96011C14.1088 1.94248 13.9213 1.97635 13.753 2.05801C13.7162 2.0756 13.6834 2.10034 13.6563 2.1308C13.6293 2.16125 13.6086 2.19679 13.5954 2.23535C13.5823 2.27391 13.577 2.31471 13.5798 2.35535C13.5827 2.39598 13.5936 2.43566 13.612 2.47202C13.651 2.54548 13.7171 2.60086 13.7962 2.62643C13.8754 2.65201 13.9614 2.64576 14.036 2.60901L14.041 2.61002Z" fill="#FF5A3C"/>
<path d="M16.0851 0.653037C16.1715 0.610929 16.2708 0.603972 16.3622 0.633628C16.4536 0.663285 16.5299 0.727238 16.5751 0.812034C16.6024 0.863282 16.6431 0.906135 16.6929 0.936027C16.7426 0.965918 16.7996 0.981712 16.8576 0.981712C16.9157 0.981712 16.9726 0.965918 17.0224 0.936027C17.0722 0.906135 17.1129 0.863282 17.1401 0.812034C17.1851 0.727054 17.2614 0.662942 17.3529 0.633262C17.4444 0.603582 17.5438 0.610671 17.6301 0.653037C17.7048 0.690093 17.7911 0.69651 17.8705 0.670921C17.9499 0.645331 18.0161 0.589763 18.0551 0.516044C18.0742 0.479902 18.0857 0.440236 18.0889 0.399497C18.0921 0.358759 18.0869 0.317808 18.0737 0.279136C18.0605 0.240464 18.0395 0.204894 18.0121 0.174613C17.9847 0.144333 17.9513 0.119956 17.9141 0.103019C17.7459 0.0211316 17.5584 -0.0128564 17.3721 0.00478298C17.1858 0.0224223 17.008 0.0910141 16.8581 0.203025C16.7083 0.0910141 16.5304 0.0224223 16.3442 0.00478298C16.1579 -0.0128564 15.9704 0.0211316 15.8021 0.103019C15.7649 0.119956 15.7316 0.144333 15.7042 0.174613C15.6767 0.204894 15.6558 0.240464 15.6426 0.279136C15.6294 0.317808 15.6242 0.358759 15.6274 0.399497C15.6306 0.440236 15.6421 0.479902 15.6611 0.516044C15.7001 0.589506 15.7662 0.644889 15.8454 0.670463C15.9245 0.696037 16.0105 0.689785 16.0851 0.653037Z" fill="#FF5A3C"/>
<path d="M21.5791 15.572C21.5781 15.5171 21.5629 15.4634 21.5351 15.416L18.9001 11.097C18.856 11.0264 18.7861 10.9756 18.7053 10.9557C18.6244 10.9357 18.539 10.948 18.4671 10.99C18.4312 11.0096 18.3997 11.0363 18.3745 11.0684C18.3493 11.1006 18.331 11.1376 18.3206 11.1771C18.3102 11.2166 18.308 11.2578 18.3141 11.2982C18.3202 11.3386 18.3345 11.3774 18.3561 11.412L20.7041 15.266H16.1641L13.0311 10.122L13.5841 9.21405L14.1041 9.02203L15.1911 9.42202C15.2631 9.44798 15.342 9.44798 15.4141 9.42202L16.5011 9.02203L17.0211 9.21405L17.6071 10.176C17.6512 10.2469 17.7212 10.2979 17.8022 10.3181C17.8832 10.3382 17.9689 10.326 18.0411 10.284C18.0769 10.2644 18.1083 10.2376 18.1334 10.2054C18.1585 10.1732 18.1767 10.1362 18.187 10.0967C18.1973 10.0572 18.1994 10.016 18.1932 9.97567C18.1871 9.93532 18.1727 9.89664 18.1511 9.86203L15.9401 6.23303C15.8726 6.12473 15.7787 6.03539 15.6672 5.97345C15.5556 5.91151 15.4302 5.87902 15.3026 5.87902C15.175 5.87902 15.0495 5.91151 14.938 5.97345C14.8264 6.03539 14.7325 6.12473 14.6651 6.23303L12.6651 9.51904L11.8331 8.15204C12.5017 7.92346 13.0662 7.46272 13.4241 6.85342C13.782 6.24412 13.9096 5.52667 13.7836 4.83136C13.6576 4.13604 13.2865 3.50898 12.7376 3.06396C12.1887 2.61895 11.4984 2.3855 10.7921 2.40603C10.0552 2.40464 9.34216 2.66714 8.78208 3.14602C8.7132 3.04006 8.61873 2.95319 8.50739 2.8934C8.39605 2.8336 8.27144 2.80282 8.14507 2.80392C8.01869 2.80502 7.89463 2.83794 7.78435 2.89965C7.67406 2.96137 7.58111 3.0499 7.51408 3.15704L3.79608 9.25705C3.77444 9.29166 3.76009 9.33034 3.75392 9.37069C3.74774 9.41105 3.74987 9.45222 3.76016 9.49173C3.77046 9.53123 3.78871 9.56822 3.8138 9.60043C3.8389 9.63264 3.8703 9.65939 3.90608 9.67904C3.97811 9.72097 4.06365 9.73315 4.14451 9.71298C4.22538 9.69281 4.29518 9.64188 4.33908 9.57104L5.82508 7.13302L6.57708 6.85504L8.04008 7.39505C8.11231 7.42203 8.19185 7.42203 8.26408 7.39505L9.72708 6.85504L10.4791 7.13302L15.4311 15.2621H8.88708C8.8054 15.2621 8.72705 15.2945 8.66929 15.3523C8.61153 15.41 8.57908 15.4883 8.57908 15.57C8.57908 15.6517 8.61153 15.7301 8.66929 15.7878C8.72705 15.8456 8.8054 15.878 8.88708 15.878H20.9471V16.589H0.632082V15.878H7.41208C7.49377 15.878 7.57211 15.8456 7.62987 15.7878C7.68763 15.7301 7.72008 15.6517 7.72008 15.57C7.72008 15.4883 7.68763 15.41 7.62987 15.3523C7.57211 15.2945 7.49377 15.2621 7.41208 15.2621H0.871082L3.58408 10.808C3.60572 10.7734 3.62007 10.7347 3.62625 10.6944C3.63242 10.654 3.6303 10.6128 3.62 10.5733C3.6097 10.5338 3.59145 10.4968 3.56636 10.4646C3.54127 10.4324 3.50987 10.4057 3.47408 10.386C3.40218 10.344 3.31672 10.3317 3.23587 10.3517C3.15502 10.3717 3.08514 10.4224 3.04108 10.493L0.0410819 15.412C0.0129342 15.4628 -0.00121625 15.52 8.19243e-05 15.578V16.905C0.000603857 16.946 0.00919184 16.9865 0.0253554 17.0241C0.041519 17.0618 0.0649416 17.0959 0.0942856 17.1245C0.12363 17.1531 0.15832 17.1756 0.196376 17.1908C0.234432 17.206 0.275109 17.2136 0.316082 17.213H21.2631C21.3041 17.2136 21.3447 17.206 21.3828 17.1908C21.4208 17.1756 21.4555 17.1531 21.4849 17.1245C21.5142 17.0959 21.5376 17.0618 21.5538 17.0241C21.57 16.9865 21.5786 16.946 21.5791 16.905V15.576V15.572ZM15.2081 6.54702C15.2182 6.53112 15.2322 6.51804 15.2487 6.50897C15.2652 6.4999 15.2837 6.49514 15.3026 6.49514C15.3214 6.49514 15.34 6.4999 15.3565 6.50897C15.373 6.51804 15.387 6.53112 15.3971 6.54702L16.5161 8.38504C16.4728 8.38318 16.4297 8.38997 16.3891 8.40503L15.3031 8.80505L14.2161 8.40503C14.1755 8.38997 14.1323 8.38318 14.0891 8.38504L15.2081 6.54702ZM13.1981 5.36905C13.1923 5.87557 13.024 6.36683 12.7179 6.77047C12.4119 7.17412 11.9843 7.4688 11.4981 7.61105L9.11008 3.68704C9.56441 3.25865 10.1656 3.02065 10.7901 3.02203C11.4208 3.01402 12.0289 3.25673 12.4808 3.6968C12.9327 4.13688 13.1914 4.73834 13.2001 5.36905H13.1981ZM9.83708 6.24203C9.76468 6.216 9.68548 6.216 9.61308 6.24203L8.15008 6.78204L6.68608 6.24203C6.56929 6.21134 6.44513 6.2275 6.34008 6.28705L8.05508 3.47204C8.06478 3.45563 8.07872 3.44213 8.09544 3.43298C8.11216 3.42383 8.13103 3.41937 8.15008 3.42004C8.16907 3.41887 8.18801 3.42313 8.20466 3.43234C8.22131 3.44155 8.23499 3.45533 8.24408 3.47204L8.44408 3.80505L9.95308 6.28305L9.83708 6.24203Z" fill="#FF5A3C"/>
</svg>
