<svg width="16" height="15" viewBox="0 0 16 15" fill="none" xmlns="http://www.w3.org/2000/svg">
<path d="M14.1639 1.78589C13.7886 1.36126 13.3273 1.02125 12.8106 0.788361C12.294 0.555476 11.7337 0.435059 11.1669 0.435059C10.6002 0.435059 10.0399 0.555476 9.52326 0.788361C9.00658 1.02125 8.54529 1.36126 8.16995 1.78589L7.90595 2.07489L7.64195 1.78589C7.28357 1.38047 6.84666 1.052 6.35767 0.820312C5.86867 0.588628 5.33775 0.458555 4.79703 0.437988C4.25631 0.417422 3.71705 0.506784 3.21186 0.700653C2.70668 0.894522 2.24608 1.18886 1.85795 1.56589C1.78461 1.63655 1.71395 1.70989 1.64595 1.78589C0.857306 2.67604 0.421875 3.82414 0.421875 5.0134C0.421875 6.20265 0.857306 7.35076 1.64595 8.24091L7.51795 14.6409C7.56534 14.6933 7.62287 14.7356 7.68707 14.7652C7.75127 14.7948 7.8208 14.8111 7.89146 14.813C7.96212 14.815 8.03244 14.8026 8.09818 14.7766C8.16392 14.7507 8.22371 14.7116 8.27395 14.6619L8.29395 14.6409L14.1639 8.24091C14.9526 7.35076 15.388 6.20265 15.388 5.0134C15.388 3.82414 14.9526 2.67604 14.1639 1.78589ZM13.3899 7.47891L7.90595 13.4609L2.42095 7.47791C1.81844 6.79775 1.48579 5.92054 1.48579 5.0119C1.48579 4.10326 1.81844 3.22606 2.42095 2.5459C2.68445 2.24524 3.00626 2.00121 3.36687 1.82861C3.72747 1.65601 4.11938 1.55845 4.51882 1.54181C4.91826 1.52517 5.31692 1.58978 5.69064 1.73178C6.06435 1.87378 6.40535 2.09019 6.69295 2.36789C6.75228 2.42456 6.80961 2.4839 6.86495 2.5459L7.51695 3.2579C7.56716 3.31033 7.62747 3.35202 7.69424 3.38052C7.76101 3.40902 7.83285 3.42374 7.90545 3.42374C7.97804 3.42374 8.04988 3.40902 8.11665 3.38052C8.18342 3.35202 8.24373 3.31033 8.29395 3.2579L8.94595 2.54691C9.20945 2.24625 9.53126 2.00222 9.89187 1.82962C10.2525 1.65702 10.6444 1.55943 11.0438 1.54279C11.4433 1.52614 11.8419 1.59079 12.2156 1.73279C12.5894 1.87479 12.9303 2.0912 13.2179 2.3689C13.2773 2.42556 13.3346 2.48491 13.3899 2.54691C13.9993 3.22351 14.3366 4.10181 14.3366 5.01239C14.3366 5.92297 13.9993 6.80131 13.3899 7.47791V7.47891Z" fill="#FF5A3C"/>
</svg>
