<svg width="29" height="24" viewBox="0 0 29 24" fill="none" xmlns="http://www.w3.org/2000/svg">
<path d="M26.961 10.3999C26.3955 9.73862 25.702 9.19864 24.9223 8.81247C24.1426 8.4263 23.2928 8.20194 22.424 8.15289C22.416 8.03389 22.41 7.86889 22.41 7.64389C22.6193 5.85386 22.9633 4.08218 23.439 2.3439L23.847 0.743896H18.9L18.569 1.33691C16.381 5.79464 15.2783 10.7067 15.351 15.6719C15.351 19.8219 18.389 23.1979 22.124 23.1979C25.859 23.1979 28.898 19.8219 28.898 15.6719C28.917 13.7371 28.2281 11.8622 26.961 10.3999ZM22.127 20.6889C20.8648 20.6176 19.6818 20.0502 18.8361 19.1104C17.9904 18.1706 17.5504 16.9347 17.612 15.6719C17.591 11.3966 18.4729 7.16493 20.2 3.25391H20.884C20.5164 4.69383 20.2722 6.16247 20.154 7.64389C20.1092 8.31401 20.2158 8.98563 20.466 9.60889C20.6137 9.93215 20.8542 10.2042 21.1569 10.3903C21.4597 10.5764 21.8109 10.6681 22.166 10.6539H22.215C23.4455 10.806 24.577 11.4055 25.394 12.3381C26.211 13.2707 26.6564 14.4712 26.6452 15.711C26.6341 16.9508 26.1673 18.1432 25.3337 19.061C24.5001 19.9788 23.358 20.5579 22.125 20.6879L22.127 20.6889Z" fill="#0A2C3D"/>
<path d="M11.6069 10.3999C11.0415 9.73853 10.348 9.19849 9.56826 8.81232C8.78852 8.42614 7.93867 8.20182 7.06991 8.15289C7.06191 8.03389 7.05591 7.86889 7.05591 7.64389C7.26508 5.85377 7.6094 4.08206 8.08591 2.3439L8.49291 0.743896H3.54891L3.21791 1.33691C1.03035 5.79481 -0.0723091 10.7067 -8.54828e-05 15.6719C-8.54828e-05 19.8219 3.03891 23.1979 6.77391 23.1979C10.5089 23.1979 13.5469 19.8219 13.5469 15.6719C13.565 13.7368 12.8751 11.8617 11.6069 10.3999ZM6.77391 20.6889C5.51155 20.6176 4.32854 20.0502 3.48265 19.1105C2.63675 18.1707 2.19653 16.9348 2.25791 15.6719C2.23625 11.3967 3.11747 7.16508 4.84391 3.25391H5.52791C5.16026 4.69383 4.91604 6.16247 4.79791 7.64389C4.75304 8.31401 4.85968 8.98563 5.10991 9.60889C5.25764 9.93207 5.49817 10.204 5.80089 10.3901C6.10362 10.5762 6.45485 10.668 6.80991 10.6539H6.85891C8.0894 10.8059 9.22096 11.4053 10.038 12.3378C10.8551 13.2703 11.3006 14.4708 11.2896 15.7106C11.2786 16.9504 10.8119 18.1428 9.9784 19.0607C9.14492 19.9785 8.0029 20.5577 6.76991 20.6879L6.77391 20.6889Z" fill="#0A2C3D"/>
</svg>
