<svg width="15" height="16" viewBox="0 0 15 16" fill="none" xmlns="http://www.w3.org/2000/svg">
<path d="M14.577 14L10.529 9.95597C11.4391 8.8323 11.8834 7.40226 11.7703 5.96067C11.6572 4.51908 10.9953 3.17585 9.921 2.20789C8.84674 1.23994 7.44203 0.721048 5.99649 0.758215C4.55095 0.795382 3.17476 1.38578 2.15166 2.40766C1.12856 3.42954 0.536541 4.805 0.49765 6.25049C0.458759 7.69599 0.975966 9.10132 1.94264 10.1767C2.90931 11.2521 4.25176 11.9157 5.69321 12.0305C7.13466 12.1454 8.56524 11.7028 9.68999 10.794L13.737 14.838C13.792 14.8931 13.8574 14.9369 13.9293 14.9668C14.0012 14.9967 14.0784 15.0122 14.1563 15.0122C14.2342 15.0123 14.3114 14.9971 14.3834 14.9674C14.4554 14.9376 14.5208 14.894 14.576 14.839C14.6311 14.7839 14.6749 14.7186 14.7048 14.6467C14.7347 14.5747 14.7502 14.4976 14.7503 14.4197C14.7503 14.3418 14.7351 14.2646 14.7054 14.1926C14.6756 14.1206 14.632 14.0551 14.577 14ZM6.15099 10.863C5.27222 10.8622 4.41341 10.6009 3.68313 10.1121C2.95284 9.6233 2.38386 8.92896 2.04812 8.11686C1.71238 7.30475 1.62494 6.41132 1.79687 5.54954C1.96879 4.68775 2.39236 3.89629 3.01402 3.27518C3.63568 2.65408 4.42754 2.23121 5.28948 2.06006C6.15142 1.88892 7.04476 1.97716 7.85656 2.31363C8.66836 2.65011 9.36218 3.21972 9.85032 3.95045C10.3385 4.68117 10.599 5.54021 10.599 6.41898C10.5979 7.59825 10.1289 8.72888 9.29497 9.56266C8.46101 10.3964 7.33026 10.8652 6.15099 10.866V10.863Z" fill="#263045"/>
</svg>
