<svg width="32" height="36" viewBox="0 0 32 36" fill="none" xmlns="http://www.w3.org/2000/svg">
<path d="M29.205 20.1909C29.6717 22.1042 29.7183 24.0176 29.345 25.9309C28.995 27.7276 28.2833 29.3609 27.21 30.8309C26.1367 32.3009 24.8183 33.4442 23.255 34.2609C21.6217 35.1242 19.8717 35.5559 18.005 35.5559C17.2583 35.5559 16.7217 35.4859 16.395 35.3459C16.0683 35.2059 15.8817 34.9492 15.835 34.5759C15.7883 34.2026 15.8467 33.6192 16.01 32.8259L16.465 30.6209C16.815 28.9876 17.0717 27.7392 17.235 26.8759L15.73 27.2259C14.4233 27.5292 13.455 27.7276 12.825 27.8209C11.2383 28.0309 9.76833 27.7042 8.415 26.8409C7.085 25.9776 6.11667 24.7409 5.51 23.1309C5.39333 22.8276 5.10167 22.4192 4.635 21.9059L4.25 21.4509L3.48 20.5059C2.5 19.2459 1.78833 18.2776 1.345 17.6009C1.08833 17.1576 1.03 16.7609 1.17 16.4109C1.33333 16.0609 1.68333 15.8042 2.22 15.6409C4.20333 15.0576 7.16667 14.1709 11.11 12.9809L16.465 11.3359L16.92 11.2309C17.2933 11.1842 17.6783 11.1492 18.075 11.1259C18.6583 11.0792 19.2417 11.0792 19.825 11.1259C20.525 11.1959 21.2017 11.3126 21.855 11.4759C22.625 11.6859 23.3483 11.9892 24.025 12.3859C24.795 12.8059 25.495 13.3426 26.125 13.9959C26.825 14.7192 27.42 15.5709 27.91 16.5509C28.47 17.6009 28.9017 18.8142 29.205 20.1909ZM13.77 25.2659C14.5633 25.0792 15.59 24.7876 16.85 24.3909C18.1333 23.9942 19.16 23.7026 19.93 23.5159C20.6067 23.3526 21.645 23.1892 23.045 23.0259L24.48 22.8509C24.27 22.2442 23.885 21.6842 23.325 21.1709C22.7883 20.6342 22.1583 20.2376 21.435 19.9809C20.6417 19.7242 19.8483 19.6542 19.055 19.7709C18.2617 19.8876 17.375 20.0742 16.395 20.3309C15.8117 20.4709 14.9367 20.7159 13.77 21.0659L12.51 21.4509C11.2967 21.8009 9.79167 22.2559 7.995 22.8159C8.29833 23.5159 8.78833 24.0876 9.465 24.5309C10.0717 24.9509 10.76 25.2309 11.53 25.3709C12.3 25.4876 13.0467 25.4526 13.77 25.2659ZM24.97 29.9559C25.2267 29.6059 25.355 29.1042 25.355 28.4509C25.3783 27.7742 25.285 27.2376 25.075 26.8409C24.865 26.4442 24.4917 26.0942 23.955 25.7909C23.4183 25.4876 22.9167 25.3359 22.45 25.3359C21.9133 25.3359 21.3417 25.4759 20.735 25.7559C20.1283 26.0126 19.755 26.3276 19.615 26.7009C19.3817 27.3309 19.16 28.0659 18.95 28.9059C18.8333 29.3959 18.6817 30.1659 18.495 31.2159C18.3317 32.1026 18.2033 32.7676 18.11 33.2109C20.98 33.3042 23.2667 32.2192 24.97 29.9559ZM26.615 21.9059L27.42 23.1659C27.2567 21.0426 26.6267 19.1642 25.53 17.5309C24.4567 15.9442 23.115 14.8126 21.505 14.1359C19.825 13.4126 18.0867 13.2726 16.29 13.7159C14.4 14.1826 11.5883 15.0226 7.855 16.2359C6.08167 16.7959 4.74 17.2159 3.83 17.4959C4.34333 18.6392 5.07833 19.4442 6.035 19.9109C6.99167 20.3542 8.05333 20.4126 9.22 20.0859L12.51 19.1059C14.4933 18.4759 15.9983 18.0209 17.025 17.7409C18.2617 17.3909 19.4983 17.3326 20.735 17.5659C21.9717 17.7759 23.0917 18.2659 24.095 19.0359C25.1217 19.7826 25.9617 20.7392 26.615 21.9059ZM26.685 0.555907C27.6183 0.555907 28.4817 0.78924 29.275 1.25591C30.0917 1.72257 30.7333 2.36424 31.2 3.18091C31.6667 3.97424 31.9 4.83757 31.9 5.77091C31.9 6.70424 31.6667 7.57924 31.2 8.39591C30.7333 9.18924 30.1033 9.81924 29.31 10.2859C28.5167 10.7526 27.6417 10.9859 26.685 10.9859C25.7283 10.9859 24.8533 10.7526 24.06 10.2859C23.2667 9.81924 22.6367 9.18924 22.17 8.39591C21.7033 7.57924 21.47 6.70424 21.47 5.77091C21.47 4.83757 21.7033 3.97424 22.17 3.18091C22.6367 2.36424 23.2667 1.72257 24.06 1.25591C24.8767 0.78924 25.7517 0.555907 26.685 0.555907ZM26.685 9.16591C27.6183 9.16591 28.4117 8.83924 29.065 8.18591C29.7417 7.50924 30.08 6.70424 30.08 5.77091C30.08 4.83757 29.7417 4.04424 29.065 3.39091C28.4117 2.71424 27.6183 2.37591 26.685 2.37591C25.7517 2.37591 24.9467 2.71424 24.27 3.39091C23.6167 4.04424 23.29 4.83757 23.29 5.77091C23.29 6.70424 23.6167 7.50924 24.27 8.18591C24.9467 8.83924 25.7517 9.16591 26.685 9.16591Z" fill="#FF5A3C"/>
</svg>
