<svg width="31" height="32" viewBox="0 0 31 32" fill="none" xmlns="http://www.w3.org/2000/svg">
<path d="M30.13 28.5859C30.2 28.7726 30.2117 28.9126 30.165 29.0059C30.1183 29.0992 30.0017 29.1692 29.815 29.2159C27.4817 29.9159 24.6583 30.4526 21.345 30.8259C21.205 30.8492 21.1 30.8376 21.03 30.7909C20.96 30.7676 20.9017 30.6976 20.855 30.5809C20.715 30.2076 20.4117 29.8692 19.945 29.5659C17.8217 28.3292 14.66 26.4509 10.46 23.9309C9.71333 23.4876 9.01333 23.3709 8.36 23.5809C8.12667 23.6276 7.98667 23.5809 7.94 23.4409C7.89333 23.2776 7.8 23.0792 7.66 22.8459C7.42667 22.4959 7.29833 22.2159 7.275 22.0059C7.205 21.3059 6.785 20.8276 6.015 20.5709C6.295 20.3376 6.62167 20.1276 6.995 19.9409C7.205 19.8242 7.52 19.6726 7.94 19.4859L8.045 19.4509C8.27833 19.3809 8.605 19.2526 9.025 19.0659C9.60833 18.8326 10.0517 18.6692 10.355 18.5759C10.845 18.4359 11.3117 18.3659 11.755 18.3659C12.1283 18.3659 12.42 18.5409 12.63 18.8909L13.68 20.5359C14.3567 21.5626 14.8583 22.3442 15.185 22.8809C15.3017 23.0676 15.4183 23.1959 15.535 23.2659C15.675 23.3126 15.8733 23.3592 16.13 23.4059C16.69 23.4992 17.1567 23.4292 17.53 23.1959C17.8567 22.9859 18.16 22.6242 18.44 22.1109C18.65 21.7142 19 21.1426 19.49 20.3959C19.84 19.8826 20.0967 19.4976 20.26 19.2409C20.5633 18.7976 20.8433 18.5176 21.1 18.4009C21.3567 18.2842 21.73 18.2959 22.22 18.4359C23.7367 18.8559 25.2183 19.4509 26.665 20.2209C26.8983 20.3842 27.0617 20.5709 27.155 20.7809C28.275 23.7909 29.2667 26.3926 30.13 28.5859ZM10.075 10.5959C9.77167 10.6192 9.56167 10.5726 9.445 10.4559C9.32833 10.3159 9.29333 10.1059 9.34 9.82591V8.98591C9.34 8.65924 9.48 8.49591 9.76 8.49591C9.9 8.51924 9.99333 8.49591 10.04 8.42591C10.0867 8.33257 10.1217 8.20424 10.145 8.04091C10.3317 5.42757 11.4867 3.47924 13.61 2.19591C13.7733 2.10257 13.89 1.96257 13.96 1.77591C14.0533 1.58924 14.1233 1.47257 14.17 1.42591C14.24 1.35591 14.4033 1.23924 14.66 1.07591L15.01 4.96091C15.01 5.12424 15.0567 5.26424 15.15 5.38091C15.2433 5.47424 15.3717 5.50924 15.535 5.48591C15.815 5.46257 15.955 5.27591 15.955 4.92591L15.92 3.73591C15.8967 2.68591 15.8733 1.89257 15.85 1.35591C15.85 1.12257 15.8967 0.970907 15.99 0.900906C16.1067 0.830907 16.27 0.807574 16.48 0.830907H16.725C16.9117 0.830907 17.0517 0.865907 17.145 0.935906C17.2383 0.982573 17.2733 1.12257 17.25 1.35591C17.2033 2.10257 17.1567 3.19924 17.11 4.64591V4.71591C17.11 4.97257 17.1333 5.14757 17.18 5.24091C17.25 5.40424 17.39 5.48591 17.6 5.48591C17.81 5.48591 17.9617 5.40424 18.055 5.24091C18.1017 5.12424 18.1367 4.94924 18.16 4.71591L18.405 1.39091C18.405 1.27424 18.44 1.20424 18.51 1.18091C18.58 1.13424 18.65 1.13424 18.72 1.18091C18.8133 1.22757 18.8717 1.28591 18.895 1.35591C18.965 1.61257 19.105 1.83424 19.315 2.02091C19.4317 2.13757 19.63 2.28924 19.91 2.47591C20.19 2.66257 20.3883 2.80257 20.505 2.89591C22.0217 4.27257 22.85 5.98757 22.99 8.04091V8.07591C23.0133 8.23924 23.0483 8.35591 23.095 8.42591C23.1417 8.49591 23.2467 8.51924 23.41 8.49591C23.62 8.49591 23.7483 8.62424 23.795 8.88091V8.95091C23.865 9.48757 23.8767 9.86091 23.83 10.0709C23.8067 10.2809 23.69 10.4209 23.48 10.4909C23.2933 10.5609 22.9433 10.5959 22.43 10.5959C21.94 10.5726 21.31 10.6892 20.54 10.9459C19.91 11.1792 19.1983 11.3192 18.405 11.3659C17.915 11.4126 17.1683 11.4242 16.165 11.4009C15.185 11.3776 14.45 11.3309 13.96 11.2609C13.1667 11.1442 12.455 10.9342 11.825 10.6309C11.6617 10.5609 11.4517 10.5259 11.195 10.5259C11.0317 10.5259 10.7983 10.5376 10.495 10.5609C10.3083 10.5842 10.1683 10.5959 10.075 10.5959ZM18.37 8.95091C18.37 9.06757 18.3933 9.14924 18.44 9.19591C18.4867 9.21924 18.5683 9.21924 18.685 9.19591C19.6883 9.12591 20.5633 8.96257 21.31 8.70591C21.45 8.65924 21.555 8.60091 21.625 8.53091C21.695 8.46091 21.73 8.35591 21.73 8.21591C21.6367 7.21257 21.3917 6.32591 20.995 5.55591C20.5517 4.73924 19.91 4.02757 19.07 3.42091L18.825 5.48591C18.615 7.02591 18.4633 8.18091 18.37 8.95091ZM14.065 3.52591C13.575 3.75924 13.1083 4.16757 12.665 4.75091C12.2683 5.28757 11.9533 5.89424 11.72 6.57091C11.4867 7.24757 11.3933 7.84257 11.44 8.35591C11.4633 8.47257 11.4983 8.55424 11.545 8.60091C11.615 8.64757 11.7083 8.68257 11.825 8.70591L11.895 8.74091C12.4317 8.90424 13.26 9.05591 14.38 9.19591C14.5433 9.21924 14.6483 9.20757 14.695 9.16091C14.7417 9.11424 14.7533 9.00924 14.73 8.84591L14.415 6.39591C14.2517 5.11257 14.135 4.15591 14.065 3.52591ZM19.42 30.7559C19.6533 30.8959 19.735 31.0592 19.665 31.2459C19.6183 31.3859 19.4667 31.4559 19.21 31.4559H13.435V31.4209H8.01C7.47333 31.4209 6.97167 31.3042 6.505 31.0709C6.295 30.9542 6.16667 30.8142 6.12 30.6509C6.07333 30.5109 6.09667 30.3242 6.19 30.0909L7.1 28.0959C7.17 27.9792 7.205 27.8859 7.205 27.8159C7.205 27.7226 7.15833 27.6292 7.065 27.5359C6.55167 26.9992 6.35333 26.2642 6.47 25.3309C6.51667 24.6542 6.4 24.1526 6.12 23.8259C5.98 23.5459 5.85167 23.4992 5.735 23.6859C5.64167 23.8492 5.51333 23.9426 5.35 23.9659C5.25667 23.9659 5.105 23.9426 4.895 23.8959L1.36 23.1959C0.94 23.1259 0.741667 22.8926 0.765 22.4959L0.8 22.2159C0.823333 21.9826 0.846667 21.8076 0.87 21.6909C0.986667 21.2709 1.10333 20.9792 1.22 20.8159C1.33667 20.6292 1.48833 20.5359 1.675 20.5359C1.885 20.5359 2.2 20.6059 2.62 20.7459L5.63 21.7959C5.77 21.8659 5.875 21.9242 5.945 21.9709C6.015 22.0176 6.03833 22.0992 6.015 22.2159C5.99167 22.4259 6.02667 22.6359 6.12 22.8459C6.16667 22.9626 6.27167 23.1259 6.435 23.3359L6.54 23.4759C6.86667 23.9192 7.00667 24.5026 6.96 25.2259V25.4709C6.96 25.7976 6.97167 26.0426 6.995 26.2059C7.065 26.7892 7.38 27.1626 7.94 27.3259C8.71 27.5359 9.865 27.8859 11.405 28.3759L12 28.5509C12.1633 28.5976 12.28 28.6092 12.35 28.5859C12.4433 28.5859 12.5017 28.5159 12.525 28.3759C12.5717 28.2592 12.56 28.1776 12.49 28.1309C12.42 28.0842 12.3033 28.0376 12.14 27.9909L10.95 27.6059C9.80667 27.2326 8.94333 26.9642 8.36 26.8009C8.10333 26.7309 7.95167 26.6376 7.905 26.5209C7.85833 26.4042 7.89333 26.2292 8.01 25.9959C8.24333 25.4826 8.44167 25.1442 8.605 24.9809C8.76833 24.7942 8.96667 24.7242 9.2 24.7709C9.43333 24.8176 9.795 24.9809 10.285 25.2609C11.7317 26.0776 13.8667 27.3492 16.69 29.0759L19.245 30.6509C19.3383 30.6976 19.3967 30.7326 19.42 30.7559ZM1.045 21.8659L1.185 21.6559C1.325 21.3759 1.44167 21.1892 1.535 21.0959C1.69833 20.9326 1.89667 20.8276 2.13 20.7809C1.80333 20.6876 1.57 20.7109 1.43 20.8509C1.29 20.9909 1.16167 21.3292 1.045 21.8659ZM10.705 11.4359C10.915 11.3892 11.0317 11.4126 11.055 11.5059C11.0783 11.5759 11.0667 11.6809 11.02 11.8209L10.985 11.9959C10.985 12.3926 11.02 12.6726 11.09 12.8359C11.2067 13.0926 11.4517 13.2326 11.825 13.2559C11.965 13.2792 12.0817 13.3492 12.175 13.4659C12.2217 13.5592 12.28 13.6992 12.35 13.8859L12.385 14.0259C12.7817 15.6592 13.61 16.7909 14.87 17.4209C15.8267 17.9109 16.795 17.9809 17.775 17.6309C18.755 17.2809 19.5367 16.5926 20.12 15.5659C20.4467 14.9359 20.6683 14.3876 20.785 13.9209C20.8783 13.5009 21.0533 13.2792 21.31 13.2559C21.7067 13.2092 21.9633 13.0459 22.08 12.7659C22.15 12.5792 22.15 12.3109 22.08 11.9609C22.0567 11.7042 22.08 11.5526 22.15 11.5059C22.22 11.4359 22.3717 11.4009 22.605 11.4009C23.025 11.4242 23.2817 11.4942 23.375 11.6109C23.4917 11.7042 23.5267 11.9609 23.48 12.3809C23.3633 13.3376 22.9667 14.0142 22.29 14.4109C22.1267 14.5042 21.9983 14.6792 21.905 14.9359L21.835 15.0759C21.065 17.0592 19.8167 18.3542 18.09 18.9609C17.6933 19.1009 17.1917 19.1709 16.585 19.1709C15.4417 19.1942 14.3917 18.8559 13.435 18.1559C12.5017 17.4559 11.8017 16.4992 11.335 15.2859C11.195 14.8659 10.95 14.5276 10.6 14.2709C9.9 13.7342 9.57333 12.9526 9.62 11.9259C9.62 11.6459 9.70167 11.4709 9.865 11.4009C9.95833 11.3776 10.1333 11.3776 10.39 11.4009C10.53 11.4242 10.635 11.4359 10.705 11.4359ZM5.175 25.6109C5.15167 26.3109 5.30333 27.0109 5.63 27.7109C5.7 27.8509 5.67667 28.0726 5.56 28.3759C5.46667 28.7026 5.315 28.9826 5.105 29.2159C4.91833 29.4492 4.73167 29.5659 4.545 29.5659L3.11 29.1109C2.99333 29.0876 2.92333 29.0409 2.9 28.9709C2.9 28.9009 2.92333 28.8076 2.97 28.6909C3.46 27.4309 3.86833 26.3226 4.195 25.3659C4.24167 25.2492 4.3 25.1792 4.37 25.1559C4.44 25.1326 4.52167 25.1326 4.615 25.1559L4.79 25.1909C5.04667 25.1909 5.175 25.3309 5.175 25.6109Z" fill="#FF5A3C"/>
</svg>
