<svg width="31" height="30" viewBox="0 0 31 30" fill="none" xmlns="http://www.w3.org/2000/svg">
<path d="M26.245 3.71566C27.715 4.90566 28.8467 6.27066 29.64 7.81066C30.4333 9.35066 30.83 10.9723 30.83 12.6757C30.83 14.379 30.4333 16.0007 29.64 17.5407C28.8467 19.0807 27.7267 20.4457 26.28 21.6357C24.8333 22.8023 23.1767 23.7007 21.31 24.3307C19.4667 24.9373 17.53 25.2407 15.5 25.2407C14.94 25.2407 14.5317 25.229 14.275 25.2057L11.65 29.5107C11.4633 29.8373 11.1717 30.0007 10.775 30.0007C10.4017 30.0007 10.11 29.849 9.9 29.5457L4.37 21.3207C3.01667 20.154 1.97833 18.8357 1.255 17.3657C0.555 15.8723 0.205 14.309 0.205 12.6757C0.205 10.9723 0.59 9.35066 1.36 7.81066C2.15333 6.27066 3.27333 4.91733 4.72 3.75066C6.16667 2.56066 7.81167 1.66233 9.655 1.05566C11.5217 0.425663 13.47 0.110664 15.5 0.110664C17.53 0.110664 19.4667 0.425663 21.31 1.05566C23.1767 1.66233 24.8217 2.549 26.245 3.71566ZM15.15 16.8057V15.5807C15.15 15.5107 15.115 15.4757 15.045 15.4757H6.575C6.505 15.4757 6.47 15.5107 6.47 15.5807V16.8057C6.47 16.8757 6.505 16.9107 6.575 16.9107H15.045C15.115 16.9107 15.15 16.8757 15.15 16.8057ZM15.15 14.0057V12.7457C15.15 12.6757 15.115 12.6407 15.045 12.6407H6.575C6.505 12.6407 6.47 12.6757 6.47 12.7457V14.0057C6.47 14.0757 6.505 14.1107 6.575 14.1107H15.045C15.115 14.1107 15.15 14.0757 15.15 14.0057ZM15.15 11.1707V9.94566C15.15 9.87566 15.115 9.84066 15.045 9.84066H6.575C6.505 9.84066 6.47 9.87566 6.47 9.94566V11.1707C6.47 11.2407 6.505 11.2757 6.575 11.2757H15.045C15.115 11.2757 15.15 11.2407 15.15 11.1707ZM22.01 18.6957C22.0567 18.1357 22.08 17.7273 22.08 17.4707C22.08 17.1907 22.0567 16.7707 22.01 16.2107C21.5667 16.1407 21.135 16.1057 20.715 16.1057C20.3183 16.1057 19.9217 16.1407 19.525 16.2107C19.455 16.6307 19.42 17.0507 19.42 17.4707C19.42 17.8673 19.455 18.2757 19.525 18.6957C19.9217 18.7657 20.3183 18.8007 20.715 18.8007C21.135 18.8007 21.5667 18.7657 22.01 18.6957ZM24.25 11.3457C24.46 10.949 24.5533 10.494 24.53 9.98066C24.53 8.93066 24.1917 8.10233 23.515 7.49566C22.8383 6.86566 21.8117 6.55066 20.435 6.55066H19.7L18.965 6.65566C18.825 6.679 18.5917 6.73733 18.265 6.83066L17.425 7.11066C17.4717 7.46066 17.5417 7.78733 17.635 8.09066C17.7517 8.44066 17.88 8.744 18.02 9.00066C18.2533 8.90733 18.4167 8.849 18.51 8.82566C18.6033 8.779 18.7433 8.73233 18.93 8.68566L19.525 8.58066H20.155C20.715 8.58066 21.17 8.709 21.52 8.96566C21.8933 9.199 22.08 9.56066 22.08 10.0507C22.08 10.3773 21.9983 10.6573 21.835 10.8907C21.7183 11.0773 21.5433 11.2523 21.31 11.4157C21.0767 11.579 20.8083 11.7073 20.505 11.8007C20.2017 11.894 19.9217 11.9523 19.665 11.9757V14.8807C20.015 14.9507 20.3767 14.9857 20.75 14.9857C21.1233 14.9857 21.4967 14.9507 21.87 14.8807V13.3407C21.9633 13.3173 22.1383 13.2357 22.395 13.0957L22.605 12.9907C22.9783 12.7807 23.2817 12.559 23.515 12.3257C23.7717 12.0923 24.0167 11.7657 24.25 11.3457Z" fill="#FF5A3C"/>
</svg>
